# xmcd
#
# Track frame offsets:
#	150
#	20451
#	45760
#	66955
#	90370
#	113883
#	128612
#	150007
#	171925
#	191407
#	209919
#	228706
#	245404
#
# Disc length: 3527 seconds
# Revision: 0
# Processed by: cddbd v1.5.2PL0 Copyright (c) Steve Scherf et al.
# Submitted via: dBpowerAMP V12.0
#
DISCID=a10dc50d
DTITLE=BluesCorp - Don't Wanna Be Famous
DYEAR=2013
DGENRE=Blues
TTITLE0=Tears of Pain
TTITLE1=Grown Man Cry
TTITLE2=Bad Advice
TTITLE3=Good Ole Days
TTITLE4=Chevrolet
TTITLE5=Father's Bues
TTITLE6=Rattle Me
TTITLE7=Don't Wanna Be Famous
TTITLE8=Voodoo
TTITLE9=Turn My Luck Around
TTITLE10=Who Do You Think You're Foolin
TTITLE11=I Wanna Dance
TTITLE12=Well My Baby
EXTD=
EXTT0=
EXTT1=
EXTT2=
EXTT3=
EXTT4=
EXTT5=
EXTT6=
EXTT7=
EXTT8=
EXTT9=
EXTT10=
EXTT11=
EXTT12=
PLAYORDER=
